<svg xmlns="http://www.w3.org/2000/svg" viewBox="0 0 512 512" role="img" aria-label="CloudCastle DI">
  <defs>
    <linearGradient id="bg" x1="0%" y1="0%" x2="100%" y2="100%">
      <stop offset="0%" stop-color="#0c4a6e"/>
      <stop offset="55%" stop-color="#1e3a8a"/>
      <stop offset="100%" stop-color="#1d4ed8"/>
    </linearGradient>
    <linearGradient id="block" x1="0%" y1="0%" x2="0%" y2="100%">
      <stop offset="0%" stop-color="#e0f2fe"/>
      <stop offset="100%" stop-color="#7dd3fc"/>
    </linearGradient>
    <linearGradient id="tower" x1="0%" y1="0%" x2="0%" y2="100%">
      <stop offset="0%" stop-color="#38bdf8"/>
      <stop offset="100%" stop-color="#0ea5e9"/>
    </linearGradient>
  </defs>
  <rect width="512" height="512" rx="96" fill="url(#bg)"/>
  <g fill="none" stroke="#67e8f9" stroke-width="3" stroke-linecap="round" opacity="0.85">
    <path d="M128 300 Q 196 248 256 268"/>
    <path d="M384 300 Q 316 248 256 268"/>
    <path d="M256 268 Q 256 210 256 176"/>
    <path d="M160 360 Q 208 332 256 340"/>
    <path d="M352 360 Q 304 332 256 340"/>
  </g>
  <circle cx="128" cy="300" r="14" fill="#22d3ee"/>
  <circle cx="384" cy="300" r="14" fill="#22d3ee"/>
  <circle cx="160" cy="360" r="12" fill="#67e8f9"/>
  <circle cx="352" cy="360" r="12" fill="#67e8f9"/>
  <circle cx="256" cy="340" r="16" fill="#a5f3fc"/>
  <g transform="translate(256 248)">
    <rect x="-78" y="-8" width="36" height="36" rx="8" fill="url(#block)"/>
    <rect x="-18" y="-8" width="36" height="36" rx="8" fill="url(#block)"/>
    <rect x="42" y="-8" width="36" height="36" rx="8" fill="url(#block)"/>
    <rect x="-48" y="-72" width="96" height="64" rx="10" fill="url(#tower)"/>
    <rect x="-60" y="-88" width="24" height="18" rx="4" fill="#e0f2fe"/>
    <rect x="-12" y="-88" width="24" height="18" rx="4" fill="#e0f2fe"/>
    <rect x="36" y="-88" width="24" height="18" rx="4" fill="#e0f2fe"/>
    <rect x="-18" y="-44" width="36" height="36" rx="6" fill="#f0f9ff" opacity="0.55"/>
  </g>
  <circle cx="256" cy="176" r="18" fill="#22d3ee" stroke="#f0f9ff" stroke-width="4"/>
</svg>
